<svg width="100" height="100" viewBox="0 0 100 100" fill="none" xmlns="http://www.w3.org/2000/svg">
<path d="M72.4766 53.9514C70.4381 48.7827 69.4188 46.1983 67.9563 45.4405C66.6882 44.7835 65.18 44.7835 63.9119 45.4405C62.4493 46.1983 61.4301 48.7827 59.3916 53.9514L58.9735 55.0114C58.5605 56.0585 58.354 56.5821 58.0378 57.0236C57.7576 57.4149 57.4149 57.7576 57.0236 58.0379C56.5821 58.3541 56.0585 58.5606 55.0113 58.9736L53.9514 59.3916C48.7827 61.4301 46.1983 62.4494 45.4405 63.9119C44.7835 65.18 44.7835 66.6882 45.4405 67.9563C46.1983 69.4188 48.7827 70.4381 53.9514 72.4766L55.0114 72.8946C56.0585 73.3076 56.5821 73.5141 57.0236 73.8303C57.4149 74.1106 57.7576 74.4532 58.0378 74.8446C58.354 75.2861 58.5605 75.8097 58.9735 76.8568L59.3916 77.9168C61.4301 83.0855 62.4493 85.6699 63.9119 86.4277C65.18 87.0847 66.6882 87.0847 67.9563 86.4277C69.4188 85.6699 70.4381 83.0855 72.4766 77.9168L72.8946 76.8568C73.3076 75.8097 73.5141 75.2861 73.8303 74.8446C74.1106 74.4532 74.4532 74.1106 74.8446 73.8303C75.2861 73.5141 75.8096 73.3076 76.8568 72.8946L77.9167 72.4766C83.0855 70.4381 85.6699 69.4188 86.4276 67.9563C87.0847 66.6882 87.0847 65.18 86.4276 63.9119C85.6699 62.4494 83.0855 61.4301 77.9167 59.3916L76.8568 58.9736C75.8096 58.5606 75.2861 58.3541 74.8446 58.0379C74.4532 57.7576 74.1106 57.4149 73.8303 57.0236C73.5141 56.5821 73.3076 56.0585 72.8946 55.0114L72.4766 53.9514Z" fill="white"/>
<path fill-rule="evenodd" clip-rule="evenodd" d="M29.4118 0H100V31.1765H31.1765V100H3.05176e-05V29.4118C3.05176e-05 13.1681 13.1681 0 29.4118 0Z" fill="white"/>
</svg>
