<svg id="Layer_2" data-name="Layer 2" xmlns="http://www.w3.org/2000/svg" viewBox="0 0 1000 1000">
  <g id="Layer_1-2" data-name="Layer 1">
    <path class="cls-1" d="m963.61,845.86c-40.75,24.27-81.57,48.58-123.42,70.52-.85.49-1.7.98-2.55,1.47-2.58,1.41-5.39,2.1-8.31,2.33-5.69.44-9.97-1.51-14.79-4.11-13.92-7.52-27.46-15.86-41.16-23.77-14.52-8.38-29.04-16.76-43.55-25.15-23.99-13.85-47.97-27.7-71.96-41.55-3.69-2.13-15.32-6.39-16.29-11.71-.07-.38-.1-.75-.09-1.11.02-1.08.37-2.07.96-2.98.09-.19.19-.37.3-.56,2.87-5.01,13.75-8.65,18.29-11.27,17.65-10.19,35.3-20.38,52.95-30.57,34.4-19.86,68.8-39.72,103.2-59.58,6.02-3.48,12.42-8.5,19.21-10.47,12.3-3.58,26.21,5.53,37.65,13.22,28.25,15.75,55.87,32.93,83.81,49.06,14.05,8.11,28.1,16.23,42.16,24.34V0H0v708.87l36.18-20.89c2.8-1.62,5.6-3.24,8.41-4.85,13.82-7.98,27.64-15.96,41.47-23.94,6.02-3.47,12.59-8.77,19.38-10.76.17-.05.33-.09.5-.13.18-.05.37-.11.55-.15,11.32-2.73,22.34,7,31.36,12.21,2.71,1.56,5.41,3.12,8.12,4.69,35.36,20.41,70.71,40.83,106.07,61.24,10.56,6.1,21.47,11.87,31.97,18.16,4.56,2.1,10.98,4.91,12.78,8.1.39.69.65,1.34.8,1.94.4.7.63,1.42.59,2.13-.05,1.36-1.03,2.72-3.5,3.97-.06.03-.11.07-.17.1-1.63,1.13-3.61,2.08-5.33,3.07-.01,0-.03.02-.04.03-13.91,8.06-27.85,16.08-41.78,24.12l-33.3,19.23c-13.95,8.06-27.9,16.14-41.86,24.17,0,0,0,0,0,0-1.16.67-2.28,1.33-3.39,1.96-.7.41-1.41.81-2.11,1.22-2.37,1.28-4.75,1.86-7.13,1.96-.03,0-.06,0-.1.01-13.01.82-27.99-12.65-38.26-18.58l-106.05-61.23c-5.04-2.91-10.09-5.81-15.13-8.72v252.08h591.25c-29.34-16.94-58.69-33.88-88.03-50.82-4.47-2.58-8.94-5.15-13.42-7.73-9.28-5.19-20.44-9.88-28.64-16.5-2.32-1.43-4.3-3.12-4.41-5.58-.05-.9.15-1.9.68-3.02,1.14-2.45,4.59-4.69,8.31-6.62,7.07-4.61,15.93-8.2,22.65-12.08,13.29-7.67,26.58-15.35,39.87-23.02,3.15-1.82,6.31-3.64,9.46-5.46,1.64-.95,3.28-1.9,4.93-2.84,13.29-7.67,26.58-15.35,39.87-23.02,7.61-4.39,15.29-9.81,23.25-13.91,2.61-1.51,5.28-2.84,8-3.66,12.71-3.83,25.11,7.18,35.27,13.05,16.67,9.62,33.33,19.24,50,28.87,19.54,11.28,39.07,22.56,58.61,33.84,14.05,8.11,28.8,15.6,42.39,24.47,2.9,1.65,5.94,3.41,6.2,6.37.14.43.21.86.21,1.29,0,.96-.42,1.93-1.4,2.85-3.27,4.65-14.27,8.46-18.22,10.74-13.15,7.59-26.31,15.19-39.46,22.78-4.21,2.43-8.41,4.86-12.62,7.29-13.13,7.58-26.26,15.16-39.39,22.74h304.65v-174.91c-11.97,7.13-24.17,13.98-36.39,20.77Zm-687.14-121.26c-10.89-6.29-21.78-12.57-32.66-18.86-7.71-4.45-15.41-8.9-23.12-13.35-6.79-3.92-13.58-7.84-20.36-11.76-16.96-9.79-34.03-19.45-50.94-29.34-5.6-2.82-17.12-7.56-17.53-13.88,0-.01,0-.02,0-.03,0,0,0,0,0,0-.1-1.5.34-2.81,1.1-3.99.04-.08.08-.17.13-.25,3.11-5.63,14.89-9.71,19.89-12.6,12.88-7.43,25.75-14.87,38.63-22.3l19.39-11.19c51.73-29.87,103.47-59.74,155.2-89.6,13.48-7.78,26.96-15.56,40.44-23.35,6.79-3.92,14.06-9.55,21.82-11.49,2.49-.62,4.87-.82,7.16-.71.06,0,.12,0,.18,0,.09,0,.18.01.28.02.04,0,.09,0,.13,0,8.23.39,15.22,5.03,22.13,9.24,17.51,9.96,34.87,20.19,52.31,30.26,3.35,1.94,6.7,3.87,10.06,5.81,11.14,6.43,22.28,12.87,33.43,19.3,10.89,6.29,21.78,12.57,32.66,18.86,8.05,4.65,25.82,10.49,31.33,18.85,1.03,1.29,1.68,2.68,1.74,4.16,0,.01,0,.02,0,.04,0,0,0,0,0,0,.12,3.18-2.39,5.89-5.05,7.31-.64.37-1.28.74-1.92,1.11-12.36,8.16-25.9,14.95-38.72,22.36-68.18,39.36-136.36,78.73-204.54,118.09-11.31,6.53-27.72,20.18-43.51,24.78-3.11,1.17-6.47,1.65-9.79,1.6-.36,0-.71-.03-1.06-.06-.12,0-.24-.01-.36-.02-.16-.01-.32-.02-.48-.04-1.68-.11-3.34-.36-4.97-.82-11.59-3.25-22.73-12.25-32.98-18.17Zm340.7,85.16c-.1.06-.19.11-.29.17-8.36,8.29-27.1,15.65-31.95,18.45-8.72,5.04-17.45,10.07-26.17,15.11-58.82,33.96-117.65,67.93-176.47,101.89-9.38,5.42-20.98,14.69-32.95,18.97-3.43,1.72-7.3,2.47-11.13,2.47-1.7,0-3.33-.19-4.9-.52-1.68-.27-3.34-.71-5-1.36-11.95-4.7-23.29-13.27-34.36-19.66l-74.39-42.95c-13.82-7.98-27.67-15.9-41.48-23.89-6.78-3.47-20.99-8.71-24.06-15.31-.22-.48-.38-.94-.51-1.38-.21-.61-.31-1.25-.3-1.94,0-.24.03-.5.07-.75.02-.11.03-.23.06-.34.05-.24.11-.48.19-.72,0,0,0-.02,0-.02.17-.55.42-1.13.75-1.73,2.62-4.74,11.52-8.34,17.06-11.06,10.94-6.38,22.01-12.58,32.97-18.91,49.3-28.47,98.61-56.93,147.91-85.4,8.84-5.1,17.67-10.2,26.51-15.3,11.34-6.55,22.62-13.22,33.99-19.72,5.64-3.53,11.61-7.6,17.9-9.16,2.44-.61,4.78-.81,7.05-.69,1.05.02,2.13.1,3.24.27,7.38,1.11,14.43,5.76,20.98,9.92,14.72,8.33,29.23,17.07,43.86,25.52,25.01,14.44,50.03,28.88,75.04,43.32,10.37,5.99,23.53,11.31,33.5,18.65,3.89,2.31,7.3,5.09,7.7,8.27.03.22.04.44.05.66.08,3.11-2.21,5.73-4.88,7.15Zm.72-30.95c-11.46-6.53-22.71-13.54-34.08-20.1-14.59-8.42-29.17-16.84-43.76-25.26-9.68-5.59-19.37-11.18-29.05-16.77-13.19-7.61-27.57-14.49-40.48-22.84-4.93-2.47-10.47-5.72-11.22-9.62-.08-.43-.12-.85-.11-1.27.02-2.88,2.05-5.32,4.63-6.66.04-.02.07-.04.11-.06,5.8-5.32,16.77-9.68,21.72-12.54,66.94-38.65,133.88-77.29,200.82-115.94,6.7-3.87,13.41-8.68,20.43-11.8.47-.27.93-.54,1.4-.81,3.37-1.84,7.15-2.65,10.97-2.71,3.03-.04,5.73.51,8.29,1.42,1.18.36,2.36.8,3.56,1.36,13.28,6.14,25.87,14.94,38.52,22.24l72.27,41.72c9.61,5.55,19.23,11.08,28.85,16.62,9.77,5.3,22.92,10.35,30.71,17.84.27.26.5.51.72.77,1.53,1.34,2.61,2.89,2.69,4.81.05,1.19-.28,2.51-1.15,4.01-1.29,2.23-4.02,4.2-7.1,5.95-9.87,7.71-26.7,14.49-30.91,16.92l-90.52,52.26-84.67,48.88c-9.78,5.65-23.23,16.7-36.57,20.94-1,.39-2.01.73-3.03,1-2.71.72-5.31.91-7.85.69-2.04-.07-4.05-.37-6.02-.98-6.61-2.05-13.02-6.09-19.19-10.07Z"/>
  </g>
</svg>